<svg xmlns="http://www.w3.org/2000/svg" viewBox="0 0 850 270" preserveAspectRatio="xMinYMid meet" role="img" aria-labelledby="title desc">
  <title id="title">NIVARA</title>
  <desc id="desc">NIVARA For a Healthier Tomorrow logo</desc>
  <defs>
    <linearGradient id="deepLeaf" x1="0" y1="0" x2="1" y2="1">
      <stop offset="0" stop-color="#08746b"/>
      <stop offset="1" stop-color="#003f48"/>
    </linearGradient>
    <linearGradient id="freshLeaf" x1="0" y1="1" x2="1" y2="0">
      <stop offset="0" stop-color="#087d70"/>
      <stop offset="1" stop-color="#72c867"/>
    </linearGradient>
  </defs>
  <g transform="translate(28 20)">
    <path d="M104 235C105 168 116 107 153 70C178 45 207 31 245 27C232 83 205 126 170 155C143 177 124 207 104 235Z" fill="url(#deepLeaf)"/>
    <path d="M104 235C73 198 37 177 20 143C4 112 1 77 5 39C48 50 83 72 103 105C123 138 112 190 104 235Z" fill="url(#freshLeaf)"/>
    <path d="M105 193C119 137 151 95 198 72C223 59 250 54 278 55C264 104 236 143 199 168C168 189 134 196 105 193Z" fill="url(#freshLeaf)"/>
    <path d="M104 235C118 172 111 107 132 58" fill="none" stroke="#f7fbf0" stroke-width="7" stroke-linecap="round"/>
    <circle cx="133" cy="22" r="17" fill="url(#freshLeaf)"/>
  </g>
  <path d="M300 29V243" stroke="#075158" stroke-width="4"/>
  <text x="331" y="151" fill="#075158" font-family="Georgia, 'Times New Roman', serif" font-size="106" font-weight="700" letter-spacing="1">NIVARA</text>
  <text x="334" y="202" fill="#075158" font-family="Arial, Helvetica, sans-serif" font-size="28" letter-spacing="1">For a Healthier Tomorrow</text>
</svg>
